HIERARCHY
ROOT pelvis
{
  OFFSET 0 0 0
  CHANNELS 6 Xposition Yposition Zposition Zrotation Xrotation Yrotation
  JOINT pelvis_right_femur
  {
    OFFSET -11.43119 -3.542788 0.2090856
    CHANNELS 3 Zrotation Xrotation Yrotation
    JOINT right_femur_tibia
    {
      OFFSET -1.028693 -40.73281 5
      CHANNELS 3 Zrotation Xrotation Yrotation
      JOINT right_tibia_foot
      {
        OFFSET -0.5013517 -42.05707 -5
        CHANNELS 3 Zrotation Xrotation Yrotation
        End Site
        {
          OFFSET 0 -5 10
        }
      }
    }
  }
  JOINT pelvis_left_femur
  {
    OFFSET 11.43119 -3.542788 0.2090856
    CHANNELS 3 Zrotation Xrotation Yrotation
    JOINT left_femur_tibia
    {
      OFFSET 1.028693 -40.73281 5
      CHANNELS 3 Zrotation Xrotation Yrotation
      JOINT left_tibia_foot
      {
        OFFSET 0.3200228 -42.98253 -5
        CHANNELS 3 Zrotation Xrotation Yrotation
        End Site
        {
          OFFSET 0 -5 10
        }
      }
    }
  }
  JOINT pelvis_spine1
  {
    OFFSET 0 8.64413 -3.209807
    CHANNELS 3 Zrotation Xrotation Yrotation
    JOINT spine1
    {
      OFFSET 0 29.53957 -1.762685
      CHANNELS 3 Zrotation Xrotation Yrotation
      JOINT spine2
      {
        OFFSET 0 16.36153 -0.1422377
        CHANNELS 3 Zrotation Xrotation Yrotation
        JOINT neck
        {
          OFFSET 0 11.60093 5
          CHANNELS 3 Zrotation Xrotation Yrotation
          End Site
          {
            OFFSET 0 20 0
          }
        }
      }
      JOINT right_manubrium
      {
        OFFSET -4.671311 15.89868 4
        CHANNELS 3 Zrotation Xrotation Yrotation
        JOINT right_clavicle
        {
          OFFSET -13.601 1.573642 -2.74176
          CHANNELS 3 Zrotation Xrotation Yrotation
          JOINT right_humerus
          {
            OFFSET -0.06331682 -27.72702 2.252146
            CHANNELS 3 Zrotation Xrotation Yrotation
            JOINT right_radius
            {
              OFFSET -0.5696302 -23.92083 0.4042105
              CHANNELS 3 Zrotation Xrotation Yrotation
              End Site
              {
                OFFSET 0 -15 0
              }
            }
          }
        }
      }
      JOINT left_manubrium
      {
        OFFSET 4.671311 15.89868 4
        CHANNELS 3 Zrotation Xrotation Yrotation
        JOINT left_clavicle
        {
          OFFSET 13.601 1.573642 -2.74176
          CHANNELS 3 Zrotation Xrotation Yrotation
          JOINT left_humerus
          {
            OFFSET 0.000209614 -29.01858 1.101395
            CHANNELS 3 Zrotation Xrotation Yrotation
            JOINT left_radius
            {
              OFFSET -0.2288314 -24.59216 1.790347
              CHANNELS 3 Zrotation Xrotation Yrotation
              End Site
              {
                OFFSET 0 -15 0
              }
            }
          }
        }
      }
    }
  }
}
MOTION
Frames: 15
Frame Time: 0.0416666666667
0 48.05195 0 -2.452671 -21.96992 -0.9632884 -51.4022 -59.90254 -40.33593 -180 81.44764 -180 10.50965 2.80966 3.678074 62.79426 -49.31715 49.84728 -180 71.88508 -180 -7.419402 -7.564988 -11.82884 -1.148527 20.43493 2.486502 8.074912 15.19008 -9.825242 -10.65524 8.578325 11.65647 5.866946 -28.78917 6.049861 20.94041 -9.029194 26.39778 -58.51877 -33.94008 15.80895 0 -64.45763 0 20.43395 5.021186 35.3244 -26.32909 -28.42887 -2.481084 54.23485 -22.71847 -26.47161 0 -71.20737 0 -6.679461 -6.966814 -14.97745
-0.008531929 48.01166 -0.002218186 -2.442638 -21.94587 -0.9886643 -51.42921 -59.93336 -40.35448 -180 81.44552 -180 10.5077 2.804 3.656312 62.78935 -49.33302 49.86331 -180 71.90258 -180 -7.419275 -7.554916 -11.82504 -1.122565 20.47241 2.524504 7.889665 15.24948 -9.71107 -10.51992 8.547047 11.70794 5.911795 -28.89755 6.255949 21.02507 -9.08709 26.15811 -58.55813 -33.85101 15.64146 0 -64.6908 0 20.4133 4.972764 35.33298 -26.45046 -28.83061 -2.025171 54.44249 -21.84677 -25.01294 0 -71.2803 0 -5.60729 -7.913023 -14.06863
-0.0425068 47.99062 -0.0007236883 -2.391567 -21.90064 -0.9331432 -51.51227 -59.95856 -40.43617 -180 81.43209 -180 10.51347 2.783665 3.598127 62.84183 -49.34037 49.9755 -180 71.96004 -180 -7.404042 -7.51741 -11.89406 -1.132993 20.55682 2.664292 7.545737 15.35786 -9.465268 -10.27675 8.536825 11.89934 6.031335 -29.03284 6.727666 21.18518 -9.240586 25.5259 -58.70091 -33.62485 15.27712 0 -65.18419 0 20.35265 4.821627 35.30554 -26.58267 -29.94756 -1.10192 55.08299 -20.28632 -22.03696 0 -70.67966 0 -3.680964 -9.352034 -12.27261
-0.08780304 47.96552 0.005326465 -2.377488 -21.80298 -0.7637587 -51.71812 -59.93535 -40.67893 -180 81.40271 -180 10.53477 2.745426 3.510377 63.05646 -49.42334 50.2484 -180 72.03407 -180 -7.374309 -7.46596 -12.05007 -1.116201 20.70063 2.877551 7.206087 15.39124 -9.16089 -10.06929 8.558368 12.22674 6.177094 -29.15643 7.364158 21.30824 -9.46679 24.63952 -58.98102 -33.25188 14.76598 0 -65.86709 0 20.2761 4.57599 35.23407 -26.43844 -31.72453 -0.09193757 56.10263 -18.46366 -18.10583 0 -68.69861 0 -1.370987 -10.77883 -9.665821
-0.1228724 47.95832 0.02726139 -2.435358 -21.63434 -0.4782771 -51.99172 -59.8378 -41.04205 -180 81.37798 -180 10.57143 2.686074 3.394194 63.42622 -49.6009 50.66317 -180 72.1118 -180 -7.329144 -7.408516 -12.28873 -1.102337 20.87904 3.113727 7.00693 15.29309 -8.93126 -9.968735 8.596634 12.61297 6.307805 -29.2493 8.015062 21.32311 -9.665415 23.7673 -59.33675 -32.78952 14.27836 0 -66.63793 0 20.22606 4.257884 35.12164 -25.92265 -33.94575 0.4824282 57.38544 -16.87407 -13.99755 0 -64.99277 0 0.5774344 -11.69279 -6.567447
-0.119924 47.95771 0.06915052 -2.578232 -21.42762 -0.1140296 -52.23669 -59.68774 -41.40677 -180 81.3664 -180 10.61611 2.613155 3.254347 63.95714 -49.83441 51.22026 -180 72.15809 -180 -7.273978 -7.356735 -12.59062 -1.113546 21.04841 3.306374 6.966097 15.09456 -8.81246 -9.942086 8.644325 12.98318 6.424583 -29.29478 8.596939 21.2446 -9.781568 23.11078 -59.68898 -32.32492 13.93214 0 -67.39143 0 20.21824 3.890215 34.96523 -25.09644 -36.35425 0.4104369 58.88674 -15.78862 -10.29309 0 -59.8758 0 1.606897 -11.99821 -3.372628
-0.08837483 47.9707 0.1457169 -2.758073 -21.23622 0.2257887 -52.35548 -59.53344 -41.63378 -180 81.35422 -180 10.66013 2.532041 3.100393 64.56629 -49.99753 51.84721 -180 72.15304 -180 -7.214092 -7.322341 -12.92607 -1.26261 21.16471 3.447579 7.083528 14.8919 -8.781698 -9.934055 8.695554 13.26191 6.538469 -29.30103 9.038635 21.15193 -9.797813 22.73405 -59.98005 -31.89987 13.75014 0 -68.03763 0 20.24132 3.490419 34.7547 -24.00314 -38.72051 -0.2473583 60.62723 -15.31437 -7.346711 0 -53.98092 0 1.44169 -11.8783 -0.4705961
-0.006275391 47.97195 0.2628892 -2.990824 -21.08373 0.471961 -52.33643 -59.40412 -41.69766 -180 81.34558 -180 10.69691 2.454442 2.959169 65.22507 -50.07188 52.49991 -180 72.05858 -180 -7.160911 -7.325725 -13.25626 -1.509458 21.21547 3.469408 7.354538 14.73421 -8.845105 -9.905858 8.71053 13.42567 6.648923 -29.28773 9.330564 21.10206 -9.782586 22.57611 -60.22718 -31.54106 13.65991 0 -68.52167 0 20.27393 3.062819 34.47722 -22.70015 -40.81373 -1.253414 62.5248 -15.31048 -5.278716 0 -47.85642 0 0.1489215 -11.55194 1.935636
0.1283104 47.96871 0.4073725 -3.290372 -20.9582 0.6012185 -52.18607 -59.30221 -41.63398 -180 81.36263 -180 10.72669 2.389454 2.843594 65.88773 -50.09373 53.114 -180 71.89435 -180 -7.118376 -7.370938 -13.53928 -1.819498 21.20701 3.366951 7.754895 14.65604 -9.005396 -9.800586 8.656685 13.45627 6.779937 -29.28976 9.478366 21.11908 -9.785262 22.55548 -60.45502 -31.25673 13.60673 0 -68.82585 0 20.30315 2.603174 34.12304 -21.28666 -42.4682 -2.364728 64.41852 -15.57652 -4.077213 0 -41.92826 0 -2.058837 -11.17894 3.77454
0.2875315 47.98729 0.5545511 -3.634783 -20.83578 0.6217377 -51.93304 -59.22816 -41.50656 -180 81.425 -180 10.75234 2.340655 2.753768 66.4817 -50.11025 53.61004 -180 71.71652 -180 -7.086606 -7.452611 -13.73896 -2.140301 21.14286 3.197402 8.205301 14.64122 -9.227616 -9.594053 8.559742 13.33103 6.959943 -29.32974 9.46406 21.20737 -9.788634 22.64619 -60.64197 -31.04353 13.59846 0 -68.95483 0 20.32316 2.110086 33.68408 -19.99451 -43.68059 -3.477737 66.02535 -16.01797 -3.633282 0 -36.66572 0 -4.858191 -10.88871 5.10283
0.4338861 48.02697 0.690141 -3.99226 -20.70292 0.5645904 -51.60751 -59.19518 -41.35963 -180 81.52809 -180 10.77579 2.308352 2.682856 66.98117 -50.1698 53.95006 -180 71.5598 -180 -7.064869 -7.55988 -13.83501 -2.462297 21.05388 3.04515 8.635701 14.6342 -9.458438 -9.270944 8.454987 13.0293 7.209739 -29.41377 9.262038 21.33845 -9.775196 22.80921 -60.77849 -30.88073 13.6367 0 -68.95063 0 20.32878 1.575676 33.15534 -18.95057 -44.63326 -4.519356 67.28452 -16.58911 -3.661456 0 -32.27862 0 -7.883405 -10.7036 6.013588
0.5418674 48.07248 0.808587 -4.346272 -20.56875 0.4508189 -51.24578 -59.20702 -41.22585 -180 81.64642 -180 10.79728 2.290883 2.631579 67.39604 -50.28608 54.13429 -180 71.42851 -180 -7.05338 -7.682374 -13.82636 -2.797809 20.97948 2.94234 9.01479 14.6101 -9.68539 -8.834198 8.343406 12.56685 7.525535 -29.54764 8.891118 21.48257 -9.74676 23.02264 -60.88906 -30.75671 13.70954 0 -68.85651 0 20.31953 0.9911285 32.53504 -18.21491 -45.44978 -5.509107 68.22017 -17.2425 -3.955879 0 -28.70256 0 -10.86666 -10.56199 6.629201
0.6073473 48.11577 0.9103499 -4.68278 -20.44451 0.2921016 -50.87499 -59.25747 -41.12162 -180 81.76038 -180 10.81752 2.28503 2.600419 67.72899 -50.44174 54.17782 -180 71.31959 -180 -7.052912 -7.812453 -13.72865 -3.142154 20.93897 2.873953 9.329792 14.57622 -9.908692 -8.329063 8.21569 12.00868 7.878489 -29.72874 8.420061 21.6066 -9.712817 23.27084 -61.00022 -30.6847 13.82382 0 -68.69723 0 20.3018 0.3529577 31.81866 -17.77297 -46.15862 -6.463346 68.87881 -17.88032 -4.386861 0 -25.727 0 -13.5837 -10.38759 7.091464
0.6365425 48.15716 1.002063 -4.979136 -20.33375 0.09156049 -50.52007 -59.34172 -41.0452 -180 81.86243 -180 10.83411 2.288376 2.591769 67.98976 -50.59267 54.12505 -180 71.22895 -180 -7.062645 -7.939829 -13.57256 -3.479119 20.93392 2.794305 9.570707 14.53935 -10.1269 -7.817112 8.072154 11.4568 8.238858 -29.92966 7.959233 21.69777 -9.671017 23.5437 -61.09565 -30.70158 14.01634 0 -68.48959 0 20.28116 -0.3349488 30.99909 -17.57869 -46.77395 -7.376868 69.35358 -18.38465 -4.825431 0 -23.14153 0 -15.85977 -10.14003 7.520464
0.6358852 48.19648 1.089434 -5.218673 -20.2405 -0.1525408 -50.20771 -59.45776 -40.99783 -180 81.94719 -180 10.84473 2.299464 2.608176 68.17807 -50.69168 54.01557 -180 71.15982 -180 -7.081135 -8.059408 -13.39552 -3.783638 20.94645 2.687127 9.72853 14.50228 -10.30757 -7.325736 7.926156 10.97938 8.604595 -30.11796 7.58002 21.76445 -9.617648 23.80575 -61.14579 -30.81442 14.29826 0 -68.24553 0 20.25516 -1.046277 30.09123 -17.54146 -47.3153 -8.138818 69.76755 -18.66651 -5.151983 0 -20.91019 0 -17.60462 -9.850375 7.974954
